<svg width="32" height="32" viewBox="0 0 32 32" fill="none" xmlns="http://www.w3.org/2000/svg">
<path d="M25 10.4501C24.325 10.7501 23.65 10.9751 22.9 11.0501C23.65 10.6001 24.25 9.8501 24.55 9.0251C23.8 9.4751 23.05 9.7751 22.225 9.9251C21.55 9.1751 20.575 8.7251 19.525 8.7251C17.5 8.7251 15.85 10.3751 15.85 12.4001C15.85 12.7001 15.85 13.0001 15.925 13.2251C12.775 13.0751 10.075 11.5751 8.275 9.3251C7.9 9.9251 7.75 10.5251 7.75 11.2001C7.75 12.4751 8.425 13.6001 9.4 14.2751C8.8 14.2751 8.2 14.1251 7.75 13.8251C7.75 13.8251 7.75 13.8251 7.75 13.9001C7.75 15.7001 9.025 17.2001 10.675 17.5001C10.375 17.5751 10.075 17.6501 9.7 17.6501C9.475 17.6501 9.25 17.6501 9.025 17.5751C9.475 19.0751 10.825 20.1251 12.475 20.1251C11.2 21.1001 9.625 21.7001 7.9 21.7001C7.6 21.7001 7.3 21.7001 7 21.6251C8.65 22.6751 10.6 23.2751 12.625 23.2751C19.45 23.2751 23.125 17.6501 23.125 12.7751C23.125 12.6251 23.125 12.4751 23.125 12.3251C23.875 11.8001 24.475 11.1251 25 10.4501Z" fill="#D9D9D9"/>
<circle cx="16" cy="16" r="15.25" stroke="#386249" stroke-width="1.5"/>
</svg>
