<svg width="32" height="32" viewBox="0 0 32 32" fill="none" xmlns="http://www.w3.org/2000/svg">
<path d="M25 10.45C24.325 10.75 23.65 10.975 22.9 11.05C23.65 10.6 24.25 9.85001 24.55 9.02501C23.8 9.47501 23.05 9.77501 22.225 9.92501C21.55 9.17501 20.575 8.72501 19.525 8.72501C17.5 8.72501 15.85 10.375 15.85 12.4C15.85 12.7 15.85 13 15.925 13.225C12.775 13.075 10.075 11.575 8.275 9.32501C7.9 9.92501 7.75 10.525 7.75 11.2C7.75 12.475 8.425 13.6 9.4 14.275C8.8 14.275 8.2 14.125 7.75 13.825C7.75 13.825 7.75 13.825 7.75 13.9C7.75 15.7 9.025 17.2 10.675 17.5C10.375 17.575 10.075 17.65 9.7 17.65C9.475 17.65 9.25 17.65 9.025 17.575C9.475 19.075 10.825 20.125 12.475 20.125C11.2 21.1 9.625 21.7 7.9 21.7C7.6 21.7 7.3 21.7 7 21.625C8.65 22.675 10.6 23.275 12.625 23.275C19.45 23.275 23.125 17.65 23.125 12.775C23.125 12.625 23.125 12.475 23.125 12.325C23.875 11.8 24.475 11.125 25 10.45Z" fill="#1B4E30"/>
<circle cx="16" cy="16" r="15.25" stroke="#EAEAEA" stroke-width="1.5"/>
</svg>
