<svg width="24" height="24" viewBox="0 0 24 24" fill="none" xmlns="http://www.w3.org/2000/svg">
<rect width="24" height="24" rx="12" fill="#0168FF"/>
<path d="M16.4927 6.13173C17.341 6.56182 17.4101 7.60465 16.6503 8.51078C16.5123 8.67537 15.0557 10.3721 13.4133 12.2814L10.4273 15.7527L13.4183 15.7826L16.4094 15.8125L16.648 15.978C17.272 16.4105 17.3477 17.2571 16.8083 17.7695C16.7974 17.7798 16.787 17.7898 16.7769 17.7996L16.7764 17.8C16.7353 17.8394 16.6993 17.874 16.66 17.9043C16.3835 18.1171 15.9431 18.117 12.4045 18.1156L12.0169 18.1155C11.8152 18.1154 11.6226 18.1154 11.4386 18.1153C8.10191 18.1149 7.62386 18.1149 7.35239 17.878C7.30699 17.8384 7.26737 17.7922 7.22112 17.7382C7.20591 17.7205 7.18998 17.7019 7.17289 17.6824C6.79517 17.2522 6.75801 16.6343 7.07431 16.0419C7.16828 15.8658 8.63013 14.1171 10.4033 12.0596L13.5646 8.39108L10.7624 8.36116C8.00271 8.33171 7.95627 8.3292 7.70921 8.19711C7.04152 7.84022 6.86873 6.99657 7.34502 6.41877C7.36125 6.39908 7.37642 6.38025 7.39093 6.36224C7.43818 6.30359 7.47838 6.25368 7.52531 6.21123C7.793 5.96906 8.27971 5.96899 11.5424 5.96857C11.7181 5.96855 11.9018 5.96852 12.094 5.96846L16.168 5.96714L16.4927 6.13173Z" fill="white"/>
</svg>
