<svg width="24" height="24" viewBox="0 0 24 24" fill="none" xmlns="http://www.w3.org/2000/svg">
<g clip-path="url(#clip0_1_1523)">
<path fill-rule="evenodd" clip-rule="evenodd" d="M4.00235 0H19.9976C22.1977 0 24 1.80183 24 4.00235V19.9976C24 22.2004 22.1977 24 19.9976 24H4.00235C1.79963 24 0 22.1982 0 19.9976V4.00235C0 1.79963 1.80183 0 4.00235 0Z" fill="url(#paint0_linear_1_1523)"/>
<path fill-rule="evenodd" clip-rule="evenodd" d="M17.5848 12C17.5848 10.8955 17.2573 9.81569 16.6436 8.89728C16.0299 7.97887 15.1577 7.26305 14.1372 6.84035C13.1167 6.41765 11.9938 6.30705 10.9105 6.52254C9.82714 6.73803 8.83203 7.26993 8.05098 8.05098C7.26993 8.83203 6.73803 9.82714 6.52254 10.9105C6.30705 11.9938 6.41765 13.1167 6.84035 14.1372C7.26305 15.1577 7.97887 16.0299 8.89728 16.6436C9.81569 17.2573 10.8955 17.5848 12 17.5848C12.7335 17.5849 13.4597 17.4405 14.1374 17.1599C14.815 16.8793 15.4307 16.4679 15.9493 15.9493C16.4679 15.4307 16.8793 14.815 17.1599 14.1374C17.4405 13.4597 17.5849 12.7335 17.5848 12ZM17.4791 5.65617C17.3012 5.65609 17.1273 5.70876 16.9794 5.80753C16.8314 5.90629 16.7161 6.04672 16.648 6.21103C16.5799 6.37535 16.5621 6.55617 16.5967 6.73063C16.6314 6.90509 16.7171 7.06535 16.8428 7.19112C16.9686 7.3169 17.1289 7.40254 17.3033 7.43722C17.4778 7.4719 17.6586 7.45406 17.8229 7.38595C17.9872 7.31784 18.1277 7.20253 18.2264 7.05459C18.3252 6.90666 18.3779 6.73276 18.3778 6.55489C18.3778 6.31653 18.2831 6.08794 18.1146 5.9194C17.946 5.75086 17.7174 5.65617 17.4791 5.65617ZM7.43465 4.36494H16.5654C17.379 4.3668 18.1587 4.69081 18.7339 5.26609C19.3092 5.84137 19.6332 6.62109 19.6351 7.43465V16.5649C19.6338 17.3787 19.31 18.1588 18.7346 18.7343C18.1592 19.3098 17.3792 19.6337 16.5654 19.6351H7.43509C6.62145 19.6331 5.84169 19.309 5.26635 18.7337C4.69101 18.1584 4.36692 17.3786 4.36494 16.5649V7.43465C4.36761 6.62126 4.69194 5.84195 5.26714 5.26683C5.84235 4.69172 6.6217 4.36749 7.43509 4.36494H7.43465ZM16.5649 3.34155H7.43509C5.18435 3.34155 3.34155 5.18435 3.34155 7.43465V16.5649C3.34434 17.6498 3.77652 18.6893 4.54361 19.4564C5.31069 20.2235 6.35028 20.6557 7.43509 20.6585H16.5654C17.6503 20.6563 18.6902 20.2243 19.4574 19.457C20.2245 18.6898 20.6564 17.6499 20.6585 16.5649V7.43465C20.6585 5.18435 18.8197 3.34155 16.5654 3.34155H16.5649ZM7.57431 12C7.57422 11.1247 7.83371 10.269 8.31996 9.54111C8.80621 8.81324 9.49738 8.24592 10.3061 7.91088C11.1148 7.57584 12.0046 7.48813 12.8632 7.65885C13.7217 7.82957 14.5103 8.25104 15.1293 8.86997C15.7483 9.4889 16.1699 10.2775 16.3407 11.136C16.5115 11.9945 16.4238 12.8844 16.0889 13.6931C15.7539 14.5018 15.1867 15.1931 14.4589 15.6794C13.731 16.1657 12.8754 16.4253 12 16.4253C10.8264 16.4249 9.701 15.9586 8.87111 15.1288C8.04122 14.299 7.57477 13.1736 7.57431 12Z" fill="white"/>
</g>
<defs>
<linearGradient id="paint0_linear_1_1523" x1="20.0386" y1="19.2826" x2="3.61599" y2="4.40457" gradientUnits="userSpaceOnUse">
<stop stop-color="#FEC053"/>
<stop offset="0.33" stop-color="#F2203E"/>
<stop offset="0.65" stop-color="#B729A8"/>
<stop offset="1" stop-color="#5342D6"/>
</linearGradient>
<clipPath id="clip0_1_1523">
<rect width="24" height="24" fill="white"/>
</clipPath>
</defs>
</svg>
