<svg width="24" height="24" viewBox="0 0 24 24" fill="none" xmlns="http://www.w3.org/2000/svg">
<g clip-path="url(#clip0_1_1659)">
<path d="M24 12C24 5.37258 18.6274 0 12 0C5.37258 0 0 5.37258 0 12C0 18.6274 5.37258 24 12 24C18.6274 24 24 18.6274 24 12Z" fill="black"/>
<path d="M19.1338 8.2806C18.6575 8.2806 18.1859 8.18679 17.7459 8.00452C17.3058 7.82225 16.906 7.55509 16.5692 7.2183C16.2324 6.88151 15.9653 6.48168 15.783 6.04164C15.6007 5.60161 15.5069 5.12998 15.5069 4.65369H12.7884V15.1813C12.7884 15.6197 12.6585 16.0481 12.4149 16.4126C12.1714 16.7771 11.8253 17.0611 11.4203 17.2289C11.0153 17.3966 10.5697 17.4405 10.1398 17.355C9.70991 17.2695 9.31501 17.0584 9.00506 16.7485C8.69511 16.4385 8.48403 16.0436 8.39852 15.6137C8.313 15.1838 8.35689 14.7382 8.52463 14.3332C8.69238 13.9282 8.97644 13.5821 9.3409 13.3386C9.70536 13.0951 10.1339 12.9651 10.5722 12.9651C10.8083 12.9647 11.0432 12.9982 11.2698 13.0645V10.2929C11.0386 10.2613 10.8055 10.2452 10.5722 10.2449C9.59578 10.2445 8.6412 10.5338 7.82918 11.076C7.01716 11.6182 6.38418 12.3891 6.01029 13.291C5.6364 14.193 5.5384 15.1856 5.72868 16.1433C5.91896 17.101 6.38897 17.9808 7.07928 18.6713C7.76958 19.3619 8.64917 19.8322 9.60679 20.0228C10.5644 20.2134 11.5571 20.1157 12.4592 19.7422C13.3613 19.3686 14.1324 18.7359 14.6749 17.924C15.2173 17.1122 15.5069 16.1577 15.5069 15.1813V9.60898C16.5303 10.4456 17.812 10.9017 19.1338 10.8997V8.2806Z" fill="#FF0B53"/>
<path d="M18.3642 7.50923C17.888 7.50945 17.4164 7.41585 16.9764 7.23377C16.5364 7.05169 16.1365 6.78469 15.7997 6.44804C15.4629 6.11138 15.1957 5.71167 15.0134 5.27173C14.8311 4.83179 14.7373 4.36024 14.7373 3.88403H12.0171V14.41C12.0171 14.8483 11.8872 15.2768 11.6436 15.6412C11.4001 16.0057 11.054 16.2898 10.649 16.4575C10.244 16.6253 9.79842 16.6691 9.36851 16.5836C8.9386 16.4981 8.5437 16.287 8.23375 15.9771C7.9238 15.6671 7.71273 15.2722 7.62721 14.8423C7.5417 14.4124 7.58559 13.9668 7.75333 13.5618C7.92107 13.1569 8.20514 12.8107 8.5696 12.5672C8.93406 12.3237 9.36255 12.1937 9.80088 12.1937C10.0369 12.194 10.2718 12.2275 10.4985 12.2931V9.52323C9.50243 9.38103 8.48669 9.54661 7.58735 9.99779C6.688 10.449 5.948 11.1642 5.46647 12.0476C4.98494 12.9311 4.78487 13.9406 4.89307 14.9409C5.00126 15.9413 5.41256 16.8847 6.07185 17.6447C6.73115 18.4048 7.60696 18.9453 8.58197 19.1937C9.55699 19.4422 10.5846 19.3867 11.5273 19.0348C12.4699 18.683 13.2825 18.0514 13.8562 17.2249C14.4299 16.3983 14.7374 15.4161 14.7373 14.41V8.83932C15.7611 9.67496 17.0427 10.1304 18.3642 10.1283V7.50923Z" fill="#00F0E9"/>
<path d="M18.3643 8.19832C17.5013 8.01051 16.7365 7.51445 16.2131 6.80309C15.5025 6.28008 15.0071 5.51586 14.8196 4.65369H12.7885V15.1813C12.7858 15.6645 12.6254 16.1335 12.3315 16.517C12.0377 16.9006 11.6266 17.1776 11.1607 17.3059C10.6949 17.4341 10.2 17.4067 9.75119 17.2277C9.30242 17.0487 8.92443 16.728 8.67479 16.3143C8.26113 16.0647 7.94038 15.6867 7.76139 15.2379C7.58239 14.7891 7.55495 14.2942 7.68324 13.8283C7.81153 13.3625 8.08853 12.9514 8.47205 12.6576C8.85558 12.3637 9.32462 12.2033 9.80777 12.2006C10.0438 12.2009 10.2786 12.2344 10.5054 12.3V10.2432C9.58181 10.2569 8.68062 10.5294 7.90425 11.0298C7.12788 11.5303 6.50748 12.2385 6.11358 13.0739C5.71969 13.9094 5.5681 14.8386 5.67604 15.756C5.78398 16.6733 6.14713 17.542 6.72421 18.2632C7.45032 18.844 8.32572 19.2079 9.24959 19.3131C10.1735 19.4182 11.1082 19.2603 11.9463 18.8575C12.7844 18.4546 13.4916 17.8233 13.9866 17.0362C14.4816 16.2491 14.7442 15.3381 14.7442 14.4083V8.83766C15.768 9.67329 17.0496 10.1287 18.3711 10.1266L18.3643 8.19832Z" fill="white"/>
</g>
<defs>
<clipPath id="clip0_1_1659">
<rect width="24" height="24" fill="white"/>
</clipPath>
</defs>
</svg>
